<mxfile host="Electron" agent="Mozilla/5.0 (X11; Linux x86_64) AppleWebKit/537.36 (KHTML, like Gecko) draw.io/28.1.2 Chrome/138.0.7204.243 Electron/37.4.0 Safari/537.36" version="28.1.2">
  <diagram name="Page-1" id="Eac-Bs2ukqW6JTLggprC">
    <mxGraphModel dx="2803" dy="5627" grid="1" gridSize="10" guides="1" tooltips="1" connect="1" arrows="1" fold="1" page="1" pageScale="1" pageWidth="850" pageHeight="1100" math="0" shadow="0">
      <root>
        <mxCell id="0" />
        <mxCell id="1" parent="0" />
        <mxCell id="0fjNzYwwDh6nOgpX-9vb-41" value="&lt;span style=&quot;color: rgb(0, 0, 0); font-size: 24px;&quot;&gt;idx: 0&lt;/span&gt;" style="rounded=0;whiteSpace=wrap;html=1;fontFamily=Fira Code;fillColor=#dae8fc;strokeColor=#6c8ebf;" parent="1" vertex="1">
          <mxGeometry x="320" y="680" width="120" height="40" as="geometry" />
        </mxCell>
        <mxCell id="0fjNzYwwDh6nOgpX-9vb-42" value="&lt;span style=&quot;color: rgb(0, 0, 0); font-size: 24px;&quot;&gt;idx: 1&lt;/span&gt;" style="rounded=0;whiteSpace=wrap;html=1;fontFamily=Fira Code;fillColor=#dae8fc;strokeColor=#6c8ebf;" parent="1" vertex="1">
          <mxGeometry x="440" y="680" width="120" height="40" as="geometry" />
        </mxCell>
        <mxCell id="0fjNzYwwDh6nOgpX-9vb-44" value="&lt;span style=&quot;color: rgb(0, 0, 0); font-size: 24px;&quot;&gt;idx: 2&lt;/span&gt;" style="rounded=0;whiteSpace=wrap;html=1;fontFamily=Fira Code;fillColor=#dae8fc;strokeColor=#6c8ebf;" parent="1" vertex="1">
          <mxGeometry x="560" y="680" width="120" height="40" as="geometry" />
        </mxCell>
        <mxCell id="0fjNzYwwDh6nOgpX-9vb-45" value="&lt;span style=&quot;color: rgb(0, 0, 0); font-size: 24px;&quot;&gt;idx: 3&lt;/span&gt;" style="rounded=0;whiteSpace=wrap;html=1;fontFamily=Fira Code;fillColor=#dae8fc;strokeColor=#6c8ebf;" parent="1" vertex="1">
          <mxGeometry x="680" y="680" width="120" height="40" as="geometry" />
        </mxCell>
        <mxCell id="0fjNzYwwDh6nOgpX-9vb-46" value="&lt;span style=&quot;color: rgb(0, 0, 0); font-size: 24px;&quot;&gt;idx: 4&lt;/span&gt;" style="rounded=0;whiteSpace=wrap;html=1;fontFamily=Fira Code;fillColor=#dae8fc;strokeColor=#6c8ebf;" parent="1" vertex="1">
          <mxGeometry x="800" y="680" width="120" height="40" as="geometry" />
        </mxCell>
        <mxCell id="0fjNzYwwDh6nOgpX-9vb-47" value="&lt;span style=&quot;color: rgb(0, 0, 0); font-size: 24px;&quot;&gt;idx: 5&lt;/span&gt;" style="rounded=0;whiteSpace=wrap;html=1;fontFamily=Fira Code;fillColor=#dae8fc;strokeColor=#6c8ebf;" parent="1" vertex="1">
          <mxGeometry x="920" y="680" width="120" height="40" as="geometry" />
        </mxCell>
        <mxCell id="0fjNzYwwDh6nOgpX-9vb-48" value="&lt;span style=&quot;color: rgb(0, 0, 0); font-size: 24px;&quot;&gt;idx: 6&lt;/span&gt;" style="rounded=0;whiteSpace=wrap;html=1;fontFamily=Fira Code;fillColor=#dae8fc;strokeColor=#6c8ebf;" parent="1" vertex="1">
          <mxGeometry x="1040" y="680" width="120" height="40" as="geometry" />
        </mxCell>
        <mxCell id="0fjNzYwwDh6nOgpX-9vb-49" value="&lt;span style=&quot;color: rgb(0, 0, 0); font-size: 24px;&quot;&gt;idx: 7&lt;/span&gt;" style="rounded=0;whiteSpace=wrap;html=1;fontFamily=Fira Code;fillColor=#dae8fc;strokeColor=#6c8ebf;" parent="1" vertex="1">
          <mxGeometry x="1160" y="680" width="120" height="40" as="geometry" />
        </mxCell>
        <mxCell id="0fjNzYwwDh6nOgpX-9vb-50" value="&lt;span style=&quot;color: rgb(0, 0, 0); font-size: 24px;&quot;&gt;idx: 8&lt;/span&gt;" style="rounded=0;whiteSpace=wrap;html=1;fontFamily=Fira Code;fillColor=#dae8fc;strokeColor=#6c8ebf;" parent="1" vertex="1">
          <mxGeometry x="1280" y="680" width="120" height="40" as="geometry" />
        </mxCell>
        <mxCell id="0fjNzYwwDh6nOgpX-9vb-51" value="&lt;span style=&quot;color: rgb(0, 0, 0); font-size: 24px;&quot;&gt;idx: 9&lt;/span&gt;" style="rounded=0;whiteSpace=wrap;html=1;fontFamily=Fira Code;fillColor=#dae8fc;strokeColor=#6c8ebf;" parent="1" vertex="1">
          <mxGeometry x="1400" y="680" width="120" height="40" as="geometry" />
        </mxCell>
        <mxCell id="0fjNzYwwDh6nOgpX-9vb-52" value="&lt;span style=&quot;color: rgb(0, 0, 0); font-size: 24px;&quot;&gt;idx: 10&lt;/span&gt;" style="rounded=0;whiteSpace=wrap;html=1;fontFamily=Fira Code;fillColor=#dae8fc;strokeColor=#6c8ebf;" parent="1" vertex="1">
          <mxGeometry x="1520" y="680" width="120" height="40" as="geometry" />
        </mxCell>
        <mxCell id="0fjNzYwwDh6nOgpX-9vb-53" value="&lt;span style=&quot;color: rgb(0, 0, 0); font-size: 24px;&quot;&gt;idx: 11&lt;/span&gt;" style="rounded=0;whiteSpace=wrap;html=1;fontFamily=Fira Code;fillColor=#dae8fc;strokeColor=#6c8ebf;" parent="1" vertex="1">
          <mxGeometry x="1640" y="680" width="120" height="40" as="geometry" />
        </mxCell>
        <mxCell id="0fjNzYwwDh6nOgpX-9vb-54" value="&lt;span style=&quot;color: rgb(0, 0, 0); font-size: 24px;&quot;&gt;idx: 12&lt;/span&gt;" style="rounded=0;whiteSpace=wrap;html=1;fontFamily=Fira Code;fillColor=#dae8fc;strokeColor=#6c8ebf;" parent="1" vertex="1">
          <mxGeometry x="1760" y="680" width="120" height="40" as="geometry" />
        </mxCell>
        <mxCell id="0fjNzYwwDh6nOgpX-9vb-56" style="edgeStyle=orthogonalEdgeStyle;rounded=0;orthogonalLoop=1;jettySize=auto;html=1;exitX=1;exitY=0.5;exitDx=0;exitDy=0;entryX=0;entryY=0.5;entryDx=0;entryDy=0;" parent="1" source="0fjNzYwwDh6nOgpX-9vb-55" target="0fjNzYwwDh6nOgpX-9vb-41" edge="1">
          <mxGeometry relative="1" as="geometry" />
        </mxCell>
        <mxCell id="0fjNzYwwDh6nOgpX-9vb-55" value="_M_buckets" style="rounded=0;whiteSpace=wrap;html=1;fontSize=24;fontFamily=Fira Code;fillColor=#fff2cc;strokeColor=#d6b656;" parent="1" vertex="1">
          <mxGeometry y="680" width="240" height="40" as="geometry" />
        </mxCell>
        <mxCell id="0fjNzYwwDh6nOgpX-9vb-86" value="" style="edgeStyle=orthogonalEdgeStyle;rounded=0;orthogonalLoop=1;jettySize=auto;html=1;strokeWidth=2;fillColor=#d5e8d4;strokeColor=#000000;" parent="1" source="0fjNzYwwDh6nOgpX-9vb-74" target="0fjNzYwwDh6nOgpX-9vb-77" edge="1">
          <mxGeometry relative="1" as="geometry" />
        </mxCell>
        <mxCell id="0fjNzYwwDh6nOgpX-9vb-74" value="&lt;font style=&quot;font-size: 24px;&quot;&gt;22&lt;/font&gt;" style="rounded=0;whiteSpace=wrap;html=1;fillColor=#d5e8d4;strokeColor=#82b366;" parent="1" vertex="1">
          <mxGeometry x="240" y="360" width="80" height="80" as="geometry" />
        </mxCell>
        <mxCell id="0fjNzYwwDh6nOgpX-9vb-87" value="" style="edgeStyle=orthogonalEdgeStyle;rounded=0;orthogonalLoop=1;jettySize=auto;html=1;strokeWidth=2;fillColor=#d5e8d4;strokeColor=#000000;" parent="1" source="0fjNzYwwDh6nOgpX-9vb-77" target="0fjNzYwwDh6nOgpX-9vb-78" edge="1">
          <mxGeometry relative="1" as="geometry" />
        </mxCell>
        <mxCell id="0fjNzYwwDh6nOgpX-9vb-77" value="&lt;font style=&quot;font-size: 24px;&quot;&gt;2&lt;/font&gt;" style="rounded=0;whiteSpace=wrap;html=1;fillColor=#f8cecc;strokeColor=#b85450;" parent="1" vertex="1">
          <mxGeometry x="400" y="360" width="80" height="80" as="geometry" />
        </mxCell>
        <mxCell id="0fjNzYwwDh6nOgpX-9vb-88" value="" style="edgeStyle=orthogonalEdgeStyle;rounded=0;orthogonalLoop=1;jettySize=auto;html=1;strokeWidth=2;fillColor=#d5e8d4;strokeColor=#000000;" parent="1" source="0fjNzYwwDh6nOgpX-9vb-78" target="0fjNzYwwDh6nOgpX-9vb-79" edge="1">
          <mxGeometry relative="1" as="geometry" />
        </mxCell>
        <mxCell id="0fjNzYwwDh6nOgpX-9vb-78" value="&lt;font style=&quot;font-size: 24px;&quot;&gt;15&lt;/font&gt;" style="rounded=0;whiteSpace=wrap;html=1;fillColor=#f8cecc;strokeColor=#b85450;" parent="1" vertex="1">
          <mxGeometry x="560" y="360" width="80" height="80" as="geometry" />
        </mxCell>
        <mxCell id="0fjNzYwwDh6nOgpX-9vb-89" value="" style="edgeStyle=orthogonalEdgeStyle;rounded=0;orthogonalLoop=1;jettySize=auto;html=1;strokeWidth=2;fillColor=#d5e8d4;strokeColor=#000000;" parent="1" source="0fjNzYwwDh6nOgpX-9vb-79" target="0fjNzYwwDh6nOgpX-9vb-80" edge="1">
          <mxGeometry relative="1" as="geometry" />
        </mxCell>
        <mxCell id="0fjNzYwwDh6nOgpX-9vb-79" value="&lt;font style=&quot;font-size: 24px;&quot;&gt;28&lt;/font&gt;" style="rounded=0;whiteSpace=wrap;html=1;fillColor=#f8cecc;strokeColor=#b85450;" parent="1" vertex="1">
          <mxGeometry x="720" y="360" width="80" height="80" as="geometry" />
        </mxCell>
        <mxCell id="0fjNzYwwDh6nOgpX-9vb-90" value="" style="edgeStyle=orthogonalEdgeStyle;rounded=0;orthogonalLoop=1;jettySize=auto;html=1;strokeWidth=2;fillColor=#d5e8d4;strokeColor=#000000;" parent="1" source="0fjNzYwwDh6nOgpX-9vb-80" target="0fjNzYwwDh6nOgpX-9vb-81" edge="1">
          <mxGeometry relative="1" as="geometry" />
        </mxCell>
        <mxCell id="0fjNzYwwDh6nOgpX-9vb-80" value="&lt;font style=&quot;font-size: 24px;&quot;&gt;27&lt;/font&gt;" style="rounded=0;whiteSpace=wrap;html=1;fillColor=#ffe6cc;strokeColor=#d79b00;" parent="1" vertex="1">
          <mxGeometry x="880" y="360" width="80" height="80" as="geometry" />
        </mxCell>
        <mxCell id="0fjNzYwwDh6nOgpX-9vb-81" value="&lt;font style=&quot;font-size: 24px;&quot;&gt;1&lt;/font&gt;" style="rounded=0;whiteSpace=wrap;html=1;fillColor=#ffe6cc;strokeColor=#d79b00;" parent="1" vertex="1">
          <mxGeometry x="1040" y="360" width="80" height="80" as="geometry" />
        </mxCell>
        <mxCell id="0fjNzYwwDh6nOgpX-9vb-92" value="" style="edgeStyle=orthogonalEdgeStyle;rounded=0;orthogonalLoop=1;jettySize=auto;html=1;strokeWidth=2;fillColor=#d5e8d4;strokeColor=#000000;" parent="1" target="0fjNzYwwDh6nOgpX-9vb-83" edge="1">
          <mxGeometry relative="1" as="geometry">
            <mxPoint x="1120" y="400" as="sourcePoint" />
          </mxGeometry>
        </mxCell>
        <mxCell id="0fjNzYwwDh6nOgpX-9vb-93" value="" style="edgeStyle=orthogonalEdgeStyle;rounded=0;orthogonalLoop=1;jettySize=auto;html=1;strokeWidth=2;fillColor=#d5e8d4;strokeColor=#000000;" parent="1" source="0fjNzYwwDh6nOgpX-9vb-83" target="0fjNzYwwDh6nOgpX-9vb-84" edge="1">
          <mxGeometry relative="1" as="geometry" />
        </mxCell>
        <mxCell id="0fjNzYwwDh6nOgpX-9vb-83" value="&lt;font style=&quot;font-size: 24px;&quot;&gt;17&lt;/font&gt;" style="rounded=0;whiteSpace=wrap;html=1;fillColor=#e1d5e7;strokeColor=#9673a6;" parent="1" vertex="1">
          <mxGeometry x="1200" y="360" width="80" height="80" as="geometry" />
        </mxCell>
        <mxCell id="0fjNzYwwDh6nOgpX-9vb-94" value="" style="edgeStyle=orthogonalEdgeStyle;rounded=0;orthogonalLoop=1;jettySize=auto;html=1;strokeWidth=2;fillColor=#d5e8d4;strokeColor=#000000;" parent="1" source="0fjNzYwwDh6nOgpX-9vb-84" target="0fjNzYwwDh6nOgpX-9vb-85" edge="1">
          <mxGeometry relative="1" as="geometry" />
        </mxCell>
        <mxCell id="0fjNzYwwDh6nOgpX-9vb-84" value="&lt;font style=&quot;font-size: 24px;&quot;&gt;30&lt;/font&gt;" style="rounded=0;whiteSpace=wrap;html=1;fillColor=#e1d5e7;strokeColor=#9673a6;" parent="1" vertex="1">
          <mxGeometry x="1360" y="360" width="80" height="80" as="geometry" />
        </mxCell>
        <mxCell id="E5Ftfc2FvoPvFugDoQk0-2" style="edgeStyle=orthogonalEdgeStyle;rounded=0;orthogonalLoop=1;jettySize=auto;html=1;strokeWidth=2;" parent="1" source="0fjNzYwwDh6nOgpX-9vb-85" target="E5Ftfc2FvoPvFugDoQk0-1" edge="1">
          <mxGeometry relative="1" as="geometry" />
        </mxCell>
        <mxCell id="0fjNzYwwDh6nOgpX-9vb-85" value="&lt;font style=&quot;font-size: 24px;&quot;&gt;43&lt;/font&gt;" style="rounded=0;whiteSpace=wrap;html=1;fillColor=#e1d5e7;strokeColor=#9673a6;" parent="1" vertex="1">
          <mxGeometry x="1520" y="360" width="80" height="80" as="geometry" />
        </mxCell>
        <mxCell id="0fjNzYwwDh6nOgpX-9vb-103" value="" style="edgeStyle=orthogonalEdgeStyle;rounded=0;orthogonalLoop=1;jettySize=auto;html=1;strokeWidth=2;" parent="1" source="0fjNzYwwDh6nOgpX-9vb-99" target="0fjNzYwwDh6nOgpX-9vb-74" edge="1">
          <mxGeometry relative="1" as="geometry" />
        </mxCell>
        <mxCell id="0fjNzYwwDh6nOgpX-9vb-99" value="_M_before_begin" style="rounded=0;whiteSpace=wrap;html=1;fontSize=24;fontFamily=Fira Code;fillColor=#fff2cc;strokeColor=#d6b656;" parent="1" vertex="1">
          <mxGeometry x="-80" y="360" width="240" height="80" as="geometry" />
        </mxCell>
        <mxCell id="0fjNzYwwDh6nOgpX-9vb-101" value="&lt;font style=&quot;font-size: 24px;&quot;&gt;nullptr&lt;/font&gt;" style="rounded=0;whiteSpace=wrap;html=1;fontFamily=Fira Code;fillColor=#f5f5f5;strokeColor=#666666;fontColor=#333333;" parent="1" vertex="1">
          <mxGeometry x="1840" y="360" width="120" height="80" as="geometry" />
        </mxCell>
        <mxCell id="0fjNzYwwDh6nOgpX-9vb-104" value="" style="endArrow=classic;html=1;rounded=0;entryX=0.5;entryY=1;entryDx=0;entryDy=0;exitX=0.5;exitY=0;exitDx=0;exitDy=0;strokeWidth=2;" parent="1" source="0fjNzYwwDh6nOgpX-9vb-51" target="0fjNzYwwDh6nOgpX-9vb-99" edge="1">
          <mxGeometry width="50" height="50" relative="1" as="geometry">
            <mxPoint x="150" y="570" as="sourcePoint" />
            <mxPoint x="200" y="520" as="targetPoint" />
          </mxGeometry>
        </mxCell>
        <mxCell id="0fjNzYwwDh6nOgpX-9vb-105" value="" style="endArrow=classic;html=1;rounded=0;exitX=0.5;exitY=0;exitDx=0;exitDy=0;entryX=0.5;entryY=1;entryDx=0;entryDy=0;strokeWidth=2;" parent="1" source="0fjNzYwwDh6nOgpX-9vb-44" target="0fjNzYwwDh6nOgpX-9vb-74" edge="1">
          <mxGeometry width="50" height="50" relative="1" as="geometry">
            <mxPoint x="540" y="610" as="sourcePoint" />
            <mxPoint x="590" y="560" as="targetPoint" />
          </mxGeometry>
        </mxCell>
        <mxCell id="0fjNzYwwDh6nOgpX-9vb-106" value="&lt;font style=&quot;font-size: 24px;&quot;&gt;2 % 13 = 2&lt;/font&gt;" style="text;html=1;align=center;verticalAlign=middle;resizable=0;points=[];autosize=1;strokeColor=none;fillColor=none;" parent="1" vertex="1">
          <mxGeometry x="400" y="320" width="140" height="40" as="geometry" />
        </mxCell>
        <mxCell id="0fjNzYwwDh6nOgpX-9vb-107" value="&lt;font style=&quot;font-size: 24px;&quot;&gt;22 % 13 = 9&lt;/font&gt;" style="text;html=1;align=center;verticalAlign=middle;resizable=0;points=[];autosize=1;strokeColor=none;fillColor=none;" parent="1" vertex="1">
          <mxGeometry x="235" y="320" width="150" height="40" as="geometry" />
        </mxCell>
        <mxCell id="0fjNzYwwDh6nOgpX-9vb-108" value="&lt;font style=&quot;font-size: 24px;&quot;&gt;27 % 13 = 1&lt;/font&gt;" style="text;html=1;align=center;verticalAlign=middle;resizable=0;points=[];autosize=1;strokeColor=none;fillColor=none;" parent="1" vertex="1">
          <mxGeometry x="880" y="320" width="150" height="40" as="geometry" />
        </mxCell>
        <mxCell id="0fjNzYwwDh6nOgpX-9vb-109" value="" style="endArrow=classic;html=1;rounded=0;exitX=0.5;exitY=0;exitDx=0;exitDy=0;entryX=0.5;entryY=1;entryDx=0;entryDy=0;strokeWidth=2;" parent="1" source="0fjNzYwwDh6nOgpX-9vb-42" target="0fjNzYwwDh6nOgpX-9vb-79" edge="1">
          <mxGeometry width="50" height="50" relative="1" as="geometry">
            <mxPoint x="1130" y="750" as="sourcePoint" />
            <mxPoint x="790" y="510" as="targetPoint" />
          </mxGeometry>
        </mxCell>
        <mxCell id="0fjNzYwwDh6nOgpX-9vb-110" value="&lt;font style=&quot;font-size: 24px;&quot;&gt;17 % 13 = 4&lt;/font&gt;" style="text;html=1;align=center;verticalAlign=middle;resizable=0;points=[];autosize=1;strokeColor=none;fillColor=none;" parent="1" vertex="1">
          <mxGeometry x="1360" y="320" width="150" height="40" as="geometry" />
        </mxCell>
        <mxCell id="0fjNzYwwDh6nOgpX-9vb-111" value="" style="endArrow=classic;html=1;rounded=0;exitX=0.5;exitY=0;exitDx=0;exitDy=0;entryX=0.5;entryY=1;entryDx=0;entryDy=0;strokeWidth=2;" parent="1" source="0fjNzYwwDh6nOgpX-9vb-46" edge="1" target="0fjNzYwwDh6nOgpX-9vb-81">
          <mxGeometry width="50" height="50" relative="1" as="geometry">
            <mxPoint x="870" y="740" as="sourcePoint" />
            <mxPoint x="1240" y="440" as="targetPoint" />
          </mxGeometry>
        </mxCell>
        <mxCell id="E5Ftfc2FvoPvFugDoQk0-1" value="&lt;span style=&quot;font-size: 24px;&quot;&gt;56&lt;/span&gt;" style="rounded=0;whiteSpace=wrap;html=1;fillColor=#e1d5e7;strokeColor=#9673a6;" parent="1" vertex="1">
          <mxGeometry x="1680" y="360" width="80" height="80" as="geometry" />
        </mxCell>
      </root>
    </mxGraphModel>
  </diagram>
</mxfile>
